<?xml version="1.0" standalone="no"?>
<!DOCTYPE svg PUBLIC "-//W3C//DTD SVG 20010904//EN"
 "http://www.w3.org/TR/2001/REC-SVG-20010904/DTD/svg10.dtd">
<svg version="1.0" xmlns="http://www.w3.org/2000/svg"
 width="1024.000000pt" height="1024.000000pt" viewBox="0 0 1024.000000 1024.000000"
 preserveAspectRatio="xMidYMid meet">
<metadata>
Created by potrace 1.16, written by Peter Selinger 2001-2019
</metadata>
<g transform="translate(0.000000,1024.000000) scale(0.100000,-0.100000)"
fill="#000000" stroke="none">
<path d="M4940 8703 c-605 -59 -1134 -264 -1615 -626 -113 -85 -184 -147 -309
-267 -534 -515 -862 -1163 -942 -1858 -22 -189 -22 -574 0 -751 45 -373 139
-683 305 -1006 166 -324 424 -648 572 -718 30 -14 88 -32 129 -41 299 -61
1267 -145 1682 -146 80 0 139 -4 143 -10 3 -5 15 -10 25 -10 10 0 20 -4 22
-10 2 -5 19 -7 40 -4 21 4 35 10 32 15 -3 5 2 9 10 9 8 0 20 -8 25 -17 10 -17
10 -17 11 0 0 9 5 17 11 17 6 0 9 -7 5 -15 -6 -18 5 -20 22 -3 8 8 15 8 24 0
8 -7 19 -7 28 -2 8 5 19 6 25 2 5 -4 62 -8 125 -9 63 -2 136 -6 163 -9 39 -5
47 -3 47 11 0 9 4 13 10 10 14 -9 50 -17 80 -19 14 -1 31 -5 38 -9 7 -5 12 -3
12 3 0 8 13 10 39 5 32 -5 41 -3 50 12 9 15 10 16 11 2 0 -13 10 -17 45 -16
25 0 48 4 51 9 3 4 9 8 15 8 11 0 12 -26 2 -33 -5 -2 -2 -2 5 0 8 1 20 3 28 3
9 0 12 5 9 10 -3 6 -2 10 4 10 5 0 11 -6 14 -12 3 -10 9 -10 25 -1 12 7 23 9
26 5 3 -5 28 -6 56 -2 28 4 53 3 56 -2 3 -5 22 -8 42 -7 20 1 44 -2 53 -5 9
-4 23 -1 30 6 16 15 101 18 111 3 4 -6 13 -2 23 10 15 20 16 20 13 0 -2 -12 4
-21 15 -23 15 -3 18 0 12 17 -5 16 -3 20 9 15 9 -3 16 -10 16 -15 0 -17 33 -9
53 14 18 20 19 20 13 2 -5 -18 -1 -20 37 -19 23 0 48 -4 56 -10 11 -9 13 -6 8
14 -4 14 -4 19 -1 13 3 -7 15 -13 25 -13 11 0 17 -4 14 -10 -3 -5 1 -10 9 -10
8 0 20 8 25 18 6 9 11 12 11 6 0 -14 50 -13 50 0 0 5 7 3 15 -4 12 -10 16 -9
21 5 6 15 9 15 20 -6 l13 -24 1 24 c0 20 2 21 15 11 8 -7 24 -10 36 -7 13 3
22 0 26 -10 3 -8 9 -11 12 -6 3 5 23 14 43 20 34 10 38 9 44 -10 6 -20 7 -20
19 3 l13 23 6 -21 c9 -29 26 -28 26 1 0 12 4 18 8 12 8 -11 82 -17 82 -7 0 4
11 8 25 8 14 1 25 -2 25 -7 0 -16 18 -9 23 8 4 17 5 17 6 1 1 -14 10 -18 40
-18 28 0 41 5 46 18 6 16 7 16 19 0 19 -26 29 -22 23 7 -3 17 0 24 7 22 6 -2
10 -12 9 -21 -1 -12 4 -15 15 -11 22 9 36 12 97 21 l50 8 -35 7 c-31 7 -30 7
15 6 41 -1 50 2 53 17 2 10 9 15 18 12 8 -3 20 -9 28 -12 10 -4 12 2 10 23 -3
17 -1 22 3 13 11 -22 45 -18 53 5 7 17 9 18 15 4 4 -11 13 -15 28 -11 20 5 20
6 1 13 -15 6 -12 8 14 8 27 1 32 4 28 19 -4 12 0 18 12 20 70 8 102 15 102 23
0 5 -8 9 -17 9 -14 0 -15 2 -4 9 7 5 10 14 7 20 -4 6 0 11 9 11 9 0 13 -4 10
-10 -3 -5 2 -10 11 -10 14 0 15 3 6 12 -19 19 -14 31 9 25 17 -5 18 -3 7 10
-11 14 -10 15 11 8 16 -5 21 -4 17 4 -12 19 4 51 25 51 22 0 24 11 7 28 -9 9
-7 12 11 12 12 0 19 4 16 10 -3 6 0 13 8 16 8 3 13 16 11 29 -1 14 3 28 8 32
7 3 8 1 4 -5 -4 -7 -1 -12 8 -12 9 0 15 6 13 13 -1 6 6 11 15 11 20 -2 18 43
-2 56 -9 6 -4 9 16 12 21 2 30 9 32 26 2 12 8 22 14 22 6 0 9 3 5 6 -9 9 20
61 40 73 10 6 12 11 6 11 -7 0 -13 5 -13 11 0 6 9 8 22 3 21 -6 21 -6 5 10
-18 18 -23 31 -9 22 4 -2 14 4 20 15 11 17 9 21 -10 29 l-23 9 23 0 c21 1 28
18 23 59 -1 6 3 12 10 12 6 0 9 -8 6 -20 -3 -11 -1 -23 5 -26 7 -4 9 8 7 33
-3 30 -1 39 8 36 16 -6 17 9 1 25 -9 9 -8 15 8 27 10 8 25 15 32 15 6 0 12 5
12 10 0 6 -11 8 -26 4 -19 -5 -25 -4 -20 5 4 6 14 11 23 11 9 0 13 6 9 15 -3
9 0 15 8 15 20 0 40 27 26 35 -5 3 -10 -1 -10 -9 0 -19 -16 -21 -26 -4 -4 6 1
17 11 24 11 8 16 21 12 34 -4 15 0 20 15 20 17 0 19 2 7 16 -8 10 -9 18 -3 22
14 10 25 42 14 42 -13 0 -3 92 11 101 10 6 10 13 1 34 -11 24 -10 27 2 22 16
-6 30 6 19 17 -3 3 -7 17 -9 30 -2 20 1 23 19 19 20 -4 20 -3 4 7 -15 10 -16
14 -5 27 10 13 10 17 1 20 -18 6 -16 23 2 23 8 0 15 7 15 15 0 8 -5 15 -10 15
-6 0 -5 9 2 21 10 17 10 23 1 26 -10 3 -9 9 3 20 10 10 13 24 9 37 -19 60 -23
103 -14 133 7 22 7 38 -1 53 -9 17 -8 20 12 20 21 0 21 0 2 15 -17 13 -17 14
-1 15 9 0 17 4 17 10 0 5 -6 7 -14 4 -8 -3 -17 -1 -21 5 -3 6 -1 11 4 11 6 0
11 14 11 30 0 17 -4 30 -10 30 -11 0 -9 28 3 48 5 7 3 12 -3 12 -6 0 -8 5 -5
10 3 6 -4 14 -17 19 -17 7 -19 10 -5 10 18 1 24 35 7 46 -5 3 -10 13 -10 22 0
13 3 13 15 3 12 -10 15 -10 15 4 0 9 -8 16 -19 16 -14 0 -18 5 -14 20 3 11 9
17 14 14 5 -3 9 2 9 10 0 10 -6 13 -16 9 -11 -4 -15 0 -14 13 1 10 1 44 -1 74
l-2 55 -6 -65 c-4 -46 -8 -4 -13 145 -16 452 -105 835 -288 1235 -71 156 -136
271 -246 437 -321 484 -713 833 -1222 1086 -327 164 -655 261 -1012 302 -122
13 -493 19 -600 8z m532 -409 c112 -21 283 -77 394 -129 125 -58 264 -152 264
-178 0 -6 -9 -2 -20 8 -21 19 -68 27 -76 13 -3 -4 2 -8 10 -8 21 0 22 -73 1
-94 -8 -8 -15 -19 -15 -25 0 -16 -9 -14 -76 20 l-61 32 -32 -24 c-17 -13 -44
-24 -59 -25 -49 -3 -52 -4 -52 -19 0 -8 -4 -15 -10 -15 -5 0 -10 5 -10 10 0 6
-4 10 -10 10 -5 0 -10 -7 -10 -16 0 -9 -6 -14 -12 -11 -7 2 -24 0 -38 -6 -14
-5 -41 -11 -60 -12 -19 -1 -27 0 -17 2 9 3 17 9 17 14 0 8 -68 3 -78 -6 -2 -2
-20 3 -40 12 -30 12 -38 13 -46 1 -10 -12 -43 -16 -71 -8 -5 1 -13 2 -18 1 -4
-1 -26 -2 -48 -3 -22 -1 -42 -5 -45 -10 -8 -13 -54 -9 -55 5 0 10 -2 10 -6 0
-2 -7 -19 -13 -36 -13 -24 0 -28 -3 -17 -10 11 -7 5 -10 -25 -10 -60 0 -190
-27 -245 -51 -27 -12 -57 -19 -65 -15 -9 3 -14 2 -11 -2 7 -11 -52 -45 -64
-37 -6 4 -9 1 -8 -7 2 -7 -3 -12 -9 -10 -7 1 -13 -2 -13 -8 0 -5 -15 -18 -34
-27 -19 -10 -54 -34 -77 -53 -24 -19 -40 -29 -36 -22 10 15 5 15 -27 -1 -14
-8 -23 -17 -19 -20 3 -4 12 -2 20 4 9 8 13 8 13 1 0 -17 -41 -26 -52 -11 -8
11 -9 10 -5 -3 6 -18 -7 -26 -40 -23 -14 1 -19 -3 -16 -12 6 -16 20 -17 26 0
3 6 6 3 6 -7 1 -18 3 -18 28 5 l28 24 -20 -25 c-31 -38 -43 -50 -51 -50 -3 0
-2 6 4 13 8 9 4 15 -14 24 -23 11 -25 9 -31 -18 -4 -20 -12 -29 -24 -29 -11 0
-19 -6 -19 -13 0 -8 -9 -22 -20 -32 -11 -10 -20 -29 -20 -42 0 -14 -4 -21 -10
-18 -6 4 -17 -10 -25 -29 -16 -37 -29 -45 -39 -23 -3 6 -4 1 -2 -13 3 -15 -3
-35 -14 -50 -11 -14 -20 -21 -20 -16 0 24 -30 -20 -30 -45 0 -23 -4 -29 -22
-29 -18 0 -20 -2 -9 -9 12 -8 12 -14 -2 -42 -8 -18 -13 -37 -11 -41 3 -4 1 -8
-4 -8 -6 0 -13 -16 -16 -35 -4 -19 -12 -35 -17 -35 -6 0 -8 -9 -4 -20 4 -11 2
-20 -4 -20 -6 0 -11 -7 -11 -16 0 -8 4 -13 9 -9 5 3 12 1 16 -5 3 -6 -1 -13
-9 -16 -10 -4 -16 -18 -16 -35 0 -21 -5 -29 -17 -29 -10 0 -14 -4 -8 -8 6 -4
9 -16 9 -27 -1 -11 -2 -26 -3 -33 -1 -7 -4 -11 -8 -9 -5 3 -9 -20 -10 -50 -2
-31 -8 -62 -14 -69 -7 -9 -7 -19 1 -33 9 -18 8 -21 -10 -21 -13 0 -20 -7 -20
-20 0 -11 5 -20 11 -20 6 0 3 -7 -6 -16 -9 -10 -13 -20 -8 -23 10 -8 12 -81 2
-81 -4 0 -10 10 -12 23 -2 12 -2 9 0 -8 10 -62 7 -119 -5 -123 -10 -3 -9 -9 5
-24 13 -15 15 -22 6 -25 -8 -3 -11 -14 -7 -29 4 -15 2 -24 -5 -24 -6 0 -11 7
-11 16 0 8 -4 12 -10 9 -10 -6 -8 -53 3 -71 3 -6 -5 -22 -18 -36 -17 -18 -21
-28 -12 -31 9 -4 9 -8 1 -14 -16 -11 -30 -78 -15 -69 6 4 11 14 11 22 0 8 5
14 10 14 16 0 12 -19 -8 -41 -10 -10 -19 -34 -20 -52 -1 -17 -5 -48 -9 -67 -3
-19 -9 -245 -12 -501 -5 -358 -9 -470 -19 -481 -7 -9 -12 -20 -11 -24 4 -25
-3 -44 -16 -44 -8 0 -15 -4 -15 -10 0 -18 -17 -10 -28 13 -11 22 -11 22 -11
-4 -1 -18 -8 -28 -21 -32 -17 -4 -19 1 -22 47 -6 106 -20 -390 -15 -541 4
-115 11 -178 26 -233 11 -41 19 -75 17 -77 -1 -1 -13 15 -27 36 -13 22 -27 37
-30 35 -3 -2 -14 20 -24 49 -17 49 -19 133 -27 1347 -10 1407 -8 1557 21 1689
63 284 199 521 428 742 249 240 572 396 892 430 107 11 364 2 463 -17z m-1180
-70 c-54 -26 -67 -43 -18 -25 14 6 26 7 26 2 0 -5 -14 -12 -31 -16 -39 -9 -37
-41 4 -38 32 2 34 -3 6 -17 -17 -9 -23 -8 -33 6 -8 11 -18 14 -26 9 -10 -6 -7
-11 11 -18 l24 -10 -25 -7 c-26 -8 -26 -9 3 -15 9 -2 17 0 17 5 0 8 41 22 47
16 9 -9 -69 -45 -84 -39 -10 4 -14 2 -10 -4 5 -7 -1 -9 -15 -6 -14 3 -18 1
-11 -4 7 -5 -25 -31 -96 -75 -236 -147 -614 -489 -838 -757 -58 -69 -114 -137
-125 -150 -25 -30 -141 -203 -192 -288 -54 -91 -159 -314 -192 -410 -22 -64
-31 -80 -41 -71 -9 7 -13 7 -13 0 0 -6 5 -14 11 -17 11 -7 3 -64 -12 -79 -5
-5 -14 -4 -22 3 -12 10 -14 5 -10 -33 l5 -45 -36 10 c-39 11 -68 3 -45 -12 7
-4 10 -12 5 -16 -4 -4 -15 1 -23 12 -14 19 -15 18 -9 -16 6 -32 3 -36 -21 -46
l-28 -11 30 3 c17 1 24 0 18 -2 -19 -7 -16 -23 5 -24 13 0 14 -2 2 -6 -8 -2
-25 -10 -38 -16 -21 -10 -22 -12 -5 -18 13 -5 9 -7 -13 -6 -17 0 -37 -4 -45
-9 -8 -5 -21 -9 -29 -9 -10 0 -14 -8 -13 -23 2 -13 -1 -21 -7 -17 -6 3 -10 0
-10 -7 0 -7 -7 -74 -15 -148 -8 -74 -15 -181 -15 -237 0 -57 -4 -105 -10 -108
-15 -9 -12 210 4 395 24 268 92 541 192 775 177 416 490 830 859 1135 223 185
583 393 820 475 119 40 140 43 67 9z m1878 -1111 c7 -32 16 -126 19 -209 8
-179 20 -208 92 -236 l44 -17 -56 0 c-46 -1 -61 3 -83 24 -39 36 -46 65 -46
193 0 64 -5 151 -10 192 -7 50 -7 76 0 78 5 2 10 10 10 18 0 35 18 9 30 -43z
m-3018 -400 c21 -20 38 -43 38 -51 0 -22 -57 -89 -81 -95 -15 -4 -33 6 -65 35
-24 22 -44 46 -44 53 0 19 78 95 97 95 9 0 34 -17 55 -37z m3480 -343 c42 -12
88 -61 88 -93 -1 -22 -1 -22 -12 -2 -20 37 -40 45 -110 45 l-68 0 0 -80 c0
-64 -3 -80 -15 -80 -8 0 -15 -5 -15 -11 0 -6 -7 -17 -15 -26 -13 -12 -18 -13
-31 -2 -13 10 -17 10 -25 -2 -5 -8 -9 -20 -9 -26 0 -21 -16 -15 -28 10 -9 19
-11 15 -11 -30 -1 -28 -5 -55 -11 -58 -6 -4 -10 -75 -10 -181 0 -114 -3 -173
-10 -169 -6 4 -10 -6 -10 -22 -1 -23 -2 -25 -11 -11 -5 10 -16 15 -24 12 -11
-5 -15 1 -15 20 0 14 -5 26 -11 26 -5 0 -7 -4 -4 -10 3 -5 2 -18 -4 -27 -9
-16 -11 -16 -19 7 -21 57 -20 56 -21 38 -1 -10 -7 -18 -15 -18 -10 0 -16 -22
-21 -77 -8 -100 -14 -123 -30 -123 -21 0 -25 76 -25 442 0 369 1 379 48 421
11 10 33 22 48 27 41 12 352 12 396 0z m-3002 -369 c0 -234 -7 -351 -21 -351
-4 0 -11 9 -14 21 -4 11 -26 29 -48 39 l-42 19 -6 -32 c-4 -18 -9 -296 -12
-619 l-5 -587 25 -16 c28 -19 95 -32 92 -19 -1 5 2 18 7 29 7 17 9 14 15 -20
4 -22 3 -44 -1 -49 -21 -22 -190 65 -308 160 -168 134 -273 315 -322 555 -30
143 -24 342 13 472 62 215 177 385 342 502 92 65 213 123 263 124 l22 1 0
-229z m3231 210 c89 -30 241 -130 294 -192 l20 -23 -25 17 c-14 10 -35 22 -47
29 -13 6 -23 15 -23 20 0 4 -9 8 -19 8 -11 0 -22 4 -26 10 -3 5 -13 6 -22 3
-12 -5 -14 -3 -8 7 5 9 4 11 -4 6 -6 -4 -19 -2 -28 6 -12 9 -15 9 -9 1 4 -8 2
-13 -6 -13 -10 0 -9 -3 2 -10 12 -8 12 -11 -3 -28 -9 -10 -17 -25 -17 -33 -1
-10 -3 -9 -11 4 -12 20 -39 23 -39 3 0 -18 -26 -27 -56 -20 -14 4 -24 2 -24
-5 0 -6 -6 -10 -12 -8 -10 1 -14 -30 -18 -118 -5 -95 -6 -71 -8 118 -2 270
-10 252 89 218z m-1414 -251 c43 -11 107 -32 143 -46 129 -51 331 -190 302
-208 -8 -4 -11 -3 -10 5 2 6 -3 14 -11 17 -8 3 -11 0 -7 -7 5 -7 1 -9 -8 -5
-9 3 -16 10 -16 15 0 5 -4 9 -10 9 -5 0 -10 -9 -10 -21 0 -16 -4 -19 -20 -14
-11 3 -20 2 -20 -4 0 -5 8 -12 18 -14 9 -3 3 -5 -15 -6 -24 -1 -31 -5 -27 -16
4 -10 0 -15 -14 -15 -11 0 -22 -5 -24 -11 -2 -7 -27 0 -68 19 -36 16 -83 37
-105 47 l-40 17 23 -22 c28 -26 28 -34 1 -20 -19 11 -20 10 -9 -10 9 -17 9
-21 0 -15 -6 4 -19 0 -28 -8 -9 -8 -37 -20 -62 -25 -25 -5 -37 -10 -27 -11 9
-1 17 -6 17 -11 0 -6 -11 -8 -25 -4 -15 4 -32 1 -40 -6 -12 -10 -18 -10 -30 0
-12 10 -15 10 -15 -3 0 -8 -9 -17 -20 -20 -11 -3 -20 -1 -20 4 0 5 5 9 10 9 6
0 10 4 10 9 0 4 -12 6 -26 3 -19 -3 -22 -7 -12 -14 9 -6 1 -8 -22 -6 -19 1
-41 -1 -48 -6 -6 -4 -12 -2 -12 3 0 6 -5 11 -11 11 -5 0 -8 -4 -5 -8 3 -5 -26
-15 -64 -21 -39 -7 -73 -17 -76 -23 -3 -5 -12 -7 -19 -4 -8 3 -15 2 -17 -3 -5
-13 -100 -61 -109 -55 -5 3 -9 -1 -9 -8 0 -8 -14 -25 -31 -38 -32 -26 -53 -48
-88 -90 -17 -20 -20 -21 -14 -5 3 11 12 24 20 28 7 4 13 13 13 19 0 6 -11 1
-24 -11 -14 -13 -42 -25 -63 -27 -49 -6 -83 -23 -83 -42 0 -12 -3 -12 -15 -2
-9 8 -13 21 -10 34 5 18 5 19 -5 4 -8 -13 -8 -24 1 -39 9 -17 8 -20 -3 -13
-24 15 -38 13 -49 -9 -10 -22 -10 -22 7 -2 15 18 16 18 10 2 -3 -10 -6 -26 -6
-34 0 -12 -3 -13 -14 -4 -12 10 -17 6 -25 -26 -6 -21 -11 -47 -11 -58 0 -11
-5 -27 -10 -35 -8 -13 -11 -12 -24 5 -9 11 -16 24 -16 28 0 4 -9 17 -20 29
-11 12 -20 32 -20 44 0 13 -4 26 -10 29 -5 3 -10 17 -10 31 0 33 -16 30 -41
-8 l-21 -33 5 70 c11 145 89 288 228 419 146 137 339 227 549 256 94 13 277 2
367 -20z m1273 -1847 c-21 -155 -131 -299 -285 -373 -100 -49 -198 -66 -282
-51 -32 6 -60 16 -61 21 -2 6 -8 8 -13 4 -5 -3 -9 -1 -9 5 0 5 -10 13 -22 17
-12 3 -30 15 -41 25 -23 21 -32 69 -14 70 7 0 3 4 -7 8 -16 6 -12 13 32 47 28
21 51 45 52 52 0 7 5 10 10 7 6 -4 8 -10 5 -15 -3 -4 4 -6 16 -3 15 4 17 8 8
14 -15 9 25 16 126 22 40 3 89 13 115 25 60 27 130 96 160 157 24 49 25 57 28
318 2 163 7 265 13 262 5 -4 9 1 9 9 0 9 5 16 11 16 5 0 8 4 4 9 -3 5 5 11 17
13 14 2 26 15 34 38 7 19 13 28 14 20 2 -30 30 66 31 110 l2 45 7 -40 c4 -22
8 -33 10 -25 1 8 6 2 10 -15 5 -18 9 37 10 140 2 94 7 -64 11 -350 4 -286 4
-548 -1 -582z m-1072 979 c6 -15 16 -43 23 -62 8 -24 14 -166 19 -460 6 -348
10 -435 23 -480 25 -83 21 -102 -9 -45 -15 28 -32 57 -39 65 -27 31 -34 142
-36 547 -1 227 -5 411 -8 408 -4 -2 -12 10 -18 26 -11 28 -10 29 4 17 14 -11
16 -11 10 4 -4 12 -2 15 8 12 7 -3 18 -17 23 -32z m-865 -140 c2 7 7 11 10 8
3 -3 7 -188 8 -410 1 -438 -1 -461 -53 -561 -120 -229 -350 -345 -594 -299
-84 16 -116 39 -48 35 25 -2 42 1 39 6 -4 5 -14 9 -23 9 -15 0 -15 2 -2 10 8
5 10 10 4 10 -23 0 -23 30 -1 79 15 34 27 49 36 46 8 -3 24 3 35 13 15 14 41
21 89 25 127 9 233 82 297 205 36 68 39 103 40 377 1 269 7 356 21 320 7 -17
8 -18 8 -2 1 9 6 17 11 17 6 0 10 7 10 15 0 22 49 65 66 58 10 -4 14 3 14 22
0 22 3 25 14 16 11 -9 15 -9 19 1z"/>
<path d="M4210 2939 c-19 -4 -44 -19 -56 -34 -28 -35 -34 -124 -34 -512 0
-323 3 -346 50 -388 16 -14 36 -20 71 -20 42 0 53 5 81 33 l33 33 -3 239 c-1
132 0 240 2 240 5 0 89 -98 307 -360 75 -91 149 -171 163 -178 62 -28 133 -4
161 54 13 27 15 93 15 407 0 206 -3 388 -6 406 -19 92 -156 118 -204 38 -18
-29 -20 -52 -20 -254 0 -122 -4 -224 -8 -227 -5 -3 -102 106 -217 242 -114
136 -216 253 -227 260 -30 21 -70 29 -108 21z"/>
<path d="M7280 2939 c-37 -15 -68 -48 -75 -80 -8 -35 1 -52 135 -264 151 -240
140 -209 140 -384 0 -167 6 -192 55 -216 40 -19 66 -19 108 -2 59 25 62 35 67
216 l5 167 70 109 c38 61 100 157 137 213 54 82 68 112 68 142 0 74 -70 121
-149 100 -46 -12 -73 -45 -171 -212 -35 -60 -67 -108 -71 -108 -4 0 -44 60
-89 134 -45 74 -94 145 -108 159 -31 29 -86 41 -122 26z"/>
<path d="M2298 2911 l-33 -29 -3 -409 c-2 -391 -1 -409 17 -440 29 -46 92 -63
141 -37 58 32 70 69 70 227 l0 137 165 0 165 0 0 -144 c0 -132 2 -146 23 -177
30 -44 63 -61 110 -55 45 5 74 28 93 73 21 48 20 769 0 818 -24 57 -105 82
-166 52 -47 -23 -60 -68 -60 -214 l0 -133 -165 0 -165 0 0 130 c0 183 -24 230
-117 230 -33 0 -50 -7 -75 -29z"/>
<path d="M3352 2926 c-13 -7 -32 -26 -43 -42 -18 -27 -19 -50 -19 -419 0 -419
0 -420 53 -459 27 -20 40 -21 275 -21 270 0 278 2 317 62 34 51 12 142 -38
160 -12 4 -101 8 -197 8 l-175 0 -3 78 -3 77 122 0 c142 0 178 12 204 67 14
30 15 42 6 73 -17 58 -53 70 -205 70 l-126 0 0 70 0 70 173 0 c194 0 212 5
241 63 16 34 17 42 4 75 -8 20 -29 47 -47 59 -33 22 -41 23 -275 23 -177 -1
-247 -4 -264 -14z"/>
<path d="M5308 2924 c-56 -30 -57 -39 -58 -430 -1 -198 -1 -378 0 -401 1 -102
116 -148 197 -79 27 24 28 27 33 153 l5 128 57 3 56 3 93 -136 c51 -75 106
-146 123 -158 41 -29 147 -31 189 -3 48 32 41 49 -96 235 -26 35 -47 67 -47
72 0 5 15 15 33 23 89 38 160 140 172 247 17 141 -76 288 -213 339 -47 18 -77
20 -285 20 -186 -1 -237 -4 -259 -16z m459 -214 c64 -23 82 -108 34 -162 l-29
-33 -146 -3 -146 -3 0 105 0 106 129 0 c70 0 141 -5 158 -10z"/>
<path d="M6322 2925 c-51 -37 -52 -44 -52 -474 l0 -399 26 -31 c44 -53 123
-54 175 -1 29 28 29 30 29 149 l0 120 44 6 c24 4 52 5 62 3 11 -2 60 -63 114
-142 104 -152 133 -176 208 -176 48 0 100 19 120 43 18 21 2 51 -95 185 -41
57 -74 105 -72 106 2 2 25 15 52 31 97 56 152 156 151 275 0 115 -73 233 -178
288 -51 27 -52 27 -306 30 -221 2 -258 1 -278 -13z m468 -220 c63 -33 76 -117
24 -166 -24 -22 -31 -23 -167 -24 l-142 0 -3 103 -3 102 131 0 c98 0 138 -4
160 -15z"/>
<path d="M5250 1750 c-53 -9 -79 -31 -92 -74 -20 -64 5 -92 130 -144 37 -16
40 -31 12 -57 -20 -18 -40 -17 -97 6 -26 10 -34 10 -47 0 -9 -8 -16 -19 -16
-26 0 -16 89 -55 125 -55 38 0 102 36 111 62 22 70 -6 115 -90 141 -70 22 -85
40 -60 68 19 21 49 22 111 3 26 -7 42 19 27 44 -15 23 -74 39 -114 32z"/>
<path d="M5827 1746 c-50 -18 -76 -42 -98 -91 -36 -78 -19 -156 44 -212 53
-46 110 -52 182 -19 59 27 68 47 33 70 -13 8 -25 6 -47 -7 -49 -29 -94 -23
-130 18 -40 46 -42 100 -6 143 33 39 71 47 123 27 65 -26 110 9 59 46 -26 18
-83 39 -106 39 -9 -1 -33 -7 -54 -14z"/>
<path d="M4285 1741 c-8 -14 -16 -271 -10 -303 8 -33 29 -42 51 -21 13 14 15
29 11 80 -4 35 -4 77 0 94 7 35 19 28 64 -38 17 -24 36 -43 43 -43 7 0 31 28
52 63 l39 62 5 -40 c4 -22 4 -58 2 -80 -2 -22 -1 -54 3 -73 5 -29 10 -33 33
-30 l27 3 2 155 c2 85 -1 161 -6 169 -17 26 -57 3 -109 -64 l-50 -66 -28 38
c-65 89 -111 122 -129 94z"/>
<path d="M4749 1673 c-4 -179 5 -213 65 -248 50 -29 71 -31 126 -9 67 27 80
60 80 208 l0 126 -24 0 c-32 0 -36 -14 -36 -136 0 -90 -3 -107 -20 -124 -34
-34 -68 -36 -98 -6 -25 25 -27 33 -32 144 l-5 117 -27 3 -28 3 -1 -78z"/>
<path d="M5527 1743 c-9 -15 -19 -270 -12 -302 6 -28 11 -32 33 -29 l27 3 0
165 c0 161 0 165 -22 168 -11 2 -23 0 -26 -5z"/>
</g>
</svg>
